<?xml version="1.0" encoding="UTF-8" standalone="no"?>
<!-- Created with Inkscape (http://www.inkscape.org/) -->

<svg
   xmlns:dc="http://purl.org/dc/elements/1.1/"
   xmlns:cc="http://creativecommons.org/ns#"
   xmlns:rdf="http://www.w3.org/1999/02/22-rdf-syntax-ns#"
   xmlns:svg="http://www.w3.org/2000/svg"
   xmlns="http://www.w3.org/2000/svg"
   xmlns:sodipodi="http://sodipodi.sourceforge.net/DTD/sodipodi-0.dtd"
   xmlns:inkscape="http://www.inkscape.org/namespaces/inkscape"
   version="1.1"
   id="svg815"
   width="24"
   height="24"
   viewBox="0 0 23.999999 24"
   sodipodi:docname="kindpng_202267.png"
   inkscape:version="0.92.4 (5da689c313, 2019-01-14)">
  <metadata
     id="metadata821">
    <rdf:RDF>
      <cc:Work
         rdf:about="">
        <dc:format>image/svg+xml</dc:format>
        <dc:type
           rdf:resource="http://purl.org/dc/dcmitype/StillImage" />
        <dc:title></dc:title>
      </cc:Work>
    </rdf:RDF>
  </metadata>
  <defs
     id="defs819" />
  <sodipodi:namedview
     pagecolor="#ffffff"
     bordercolor="#666666"
     borderopacity="1"
     objecttolerance="10"
     gridtolerance="10"
     guidetolerance="10"
     inkscape:pageopacity="0"
     inkscape:pageshadow="2"
     inkscape:window-width="1920"
     inkscape:window-height="1027"
     id="namedview817"
     showgrid="false"
     fit-margin-top="0"
     fit-margin-left="0"
     fit-margin-right="0"
     fit-margin-bottom="0"
     inkscape:zoom="14.793101"
     inkscape:cx="43.979744"
     inkscape:cy="20.704881"
     inkscape:window-x="-8"
     inkscape:window-y="-8"
     inkscape:window-maximized="1"
     inkscape:current-layer="g829" />
  <g
     id="g829"
     transform="translate(-156.92807,-321.82187)">
    <rect
       style="fill:#cccccc;stroke:#000000;stroke-width:0.78155631;stroke-miterlimit:4;stroke-dasharray:none;stroke-dashoffset:0"
       id="rect831"
       width="23.218443"
       height="23.218443"
       x="157.31885"
       y="322.21265"
       rx="3.1243448"
       ry="3.1281099" />
    <path
       inkscape:connector-curvature="0"
       id="path825"
       d="m 177.54251,343.80711 c -0.0618,-0.0123 -0.17666,-0.059 -0.25529,-0.10377 -0.12584,-0.0717 -0.50693,-0.38124 -0.76153,-0.61856 l -0.0876,-0.0817 0.0692,-0.0978 c 0.0381,-0.0538 0.24649,-0.36267 0.46318,-0.68646 0.61971,-0.92601 0.8828,-1.30695 0.90263,-1.30695 0.0465,0 0.5439,0.4656 0.74146,0.6941 0.33806,0.39102 0.40833,0.95894 0.18355,1.48351 -0.13419,0.31313 -0.36512,0.55181 -0.64084,0.6623 -0.15696,0.0629 -0.44561,0.0888 -0.61475,0.0553 z m -2.09651,-1.68827 c -0.33577,-0.29466 -1.13233,-0.9967 -1.77013,-1.5601 -1.73534,-1.53291 -2.22101,-1.95453 -2.25143,-1.95453 -0.0151,0 -0.1175,0.08 -0.22744,0.1777 -0.4621,0.41082 -0.71736,0.62497 -0.91216,0.76518 -0.98942,0.71221 -2.0699,1.14416 -3.20634,1.28177 -0.59229,0.0717 -1.51842,0.0346 -2.06515,-0.0828 -1.30419,-0.28005 -2.5197,-0.94782 -3.51008,-1.92834 -1.42026,-1.40616 -2.30533,-3.32814 -2.53823,-5.51192 -0.0494,-0.46291 -0.0493,-1.48104 2.2e-4,-1.91921 0.0775,-0.68662 0.18158,-1.21105 0.35859,-1.80649 0.47221,-1.58876 1.36513,-3.01756 2.51683,-4.02713 1.15849,-1.01552 2.55818,-1.62259 3.95894,-1.717 0.43862,-0.0296 1.12882,-0.0106 1.47042,0.0403 1.12262,0.16754 2.23607,0.65302 3.17568,1.38465 0.67113,0.52257 1.38798,1.31719 1.86152,2.06347 0.72608,1.1443 1.21287,2.59315 1.36876,4.07392 0.0487,0.46325 0.0487,1.458 -1.6e-4,1.90744 -0.0949,0.87331 -0.27298,1.63747 -0.56582,2.42841 -0.0689,0.1862 -0.15701,0.40826 -0.1957,0.49347 -0.0387,0.0852 -0.065,0.16999 -0.0586,0.18839 0.0135,0.0384 -0.083,-0.0482 2.31777,2.08144 2.36737,2.10009 2.31341,2.05036 2.29587,2.11541 -0.0223,0.0828 -0.18431,0.34138 -0.59303,0.94665 -0.4752,0.70374 -0.75864,1.09501 -0.79326,1.09501 -0.0146,0 -0.30131,-0.24107 -0.63709,-0.53573 z m -8.59251,-3.42096 c 0.65684,-0.06 1.25192,-0.25493 1.90594,-0.62423 0.57175,-0.32286 1.01161,-0.68274 1.45264,-1.18849 0.47573,-0.54553 0.76604,-1.01458 1.07121,-1.73082 0.4412,-1.03553 0.56063,-1.65462 0.56115,-2.90887 2.3e-4,-0.68997 -0.0451,-1.07856 -0.19429,-1.66318 -0.27715,-1.08601 -0.71479,-1.93247 -1.41722,-2.74101 -0.65985,-0.75953 -1.33189,-1.24047 -2.19704,-1.57237 -0.77864,-0.29869 -1.77054,-0.3958 -2.54264,-0.24895 -0.98139,0.18667 -1.9066,0.65584 -2.65422,1.34598 -0.23732,0.21907 -0.61534,0.65342 -0.80407,0.92398 -0.55067,0.78928 -0.97196,1.79809 -1.13758,2.7239 -0.13898,0.77703 -0.13784,1.91216 0.003,2.66155 0.18257,0.97356 0.56028,1.89419 1.08131,2.63532 0.1948,0.2771 0.59438,0.74205 0.83232,0.9685 0.81371,0.77434 1.94601,1.33055 2.88386,1.41654 0.31342,0.0288 0.85406,0.0298 1.156,0.002 z m -0.87012,-1.07477 c -0.13574,-0.092 -0.33002,-0.27648 -0.57464,-0.54582 -0.11952,-0.13158 -0.22291,-0.23923 -0.22977,-0.23923 -0.007,0 -0.0127,0.045 -0.0127,0.10008 0,0.17624 -0.0269,0.17658 -0.11686,0.002 -0.0454,-0.0882 -0.0927,-0.20284 -0.10512,-0.25464 -0.0138,-0.0572 -0.0224,-0.32781 -0.0228,-0.68938 l -1.3e-4,-0.5952 -0.074,-0.16943 c -0.3271,-0.749 -0.48764,-1.27284 -0.63163,-2.06062 -0.0255,-0.13956 -0.0442,-0.19427 -0.0663,-0.19427 -0.0581,0 -0.16324,0.11635 -0.21643,0.23945 -0.0974,0.22537 -0.0661,0.65606 0.10319,1.42072 0.0286,0.12952 0.057,0.32216 0.063,0.4281 0.01,0.17658 0.007,0.20121 -0.0417,0.29601 -0.0889,0.17496 -0.29647,0.30716 -0.64007,0.40766 -0.20682,0.0605 -0.64799,0.10692 -0.60979,0.0642 0.0114,-0.0126 0.094,-0.0519 0.18384,-0.0874 0.32796,-0.12952 0.54488,-0.32471 0.61155,-0.55033 0.0602,-0.204 0.0321,-0.41761 -0.1334,-1.01531 -0.16218,-0.58502 -0.15952,-1.00383 0.009,-1.4247 0.10463,-0.26152 0.34304,-0.524 0.53622,-0.59036 0.055,-0.0188 0.11173,-0.0563 0.12614,-0.0831 0.0269,-0.05 0.14743,-0.62906 0.14743,-0.70817 0,-0.0243 -0.0251,-0.0587 -0.0562,-0.0769 -0.0753,-0.0442 -0.52548,-0.17056 -0.7363,-0.20674 -0.0932,-0.0161 -0.15758,-0.0365 -0.14294,-0.0455 0.0145,-0.009 0.10008,-0.0356 0.18994,-0.059 0.0899,-0.0234 0.16668,-0.0452 0.17068,-0.0485 0.004,-0.003 -0.0707,-0.12049 -0.166,-0.26052 -0.21888,-0.32165 -0.30987,-0.48689 -0.3776,-0.68561 -0.0473,-0.13871 -0.0538,-0.19172 -0.0543,-0.44027 0,-0.34593 0.0306,-0.43745 0.21881,-0.63836 0.17155,-0.18315 0.30436,-0.24915 0.5292,-0.26298 0.17564,-0.0108 0.28197,0.003 0.28155,0.0364 -1.3e-4,0.009 -0.0553,0.0467 -0.12265,0.0829 -0.15518,0.0833 -0.38274,0.34083 -0.45812,0.51848 -0.073,0.17205 -0.0871,0.34666 -0.0424,0.52409 0.10018,0.39743 0.3425,0.61714 0.91928,0.83349 0.13957,0.0523 0.28474,0.0952 0.32261,0.0952 0.0379,0 0.12665,-0.027 0.19735,-0.0602 0.25995,-0.1218 0.80441,-0.21035 1.19576,-0.19449 l 0.18381,0.007 0.005,3.06767 0.005,3.06769 -0.0563,-0.0142 c -0.25691,-0.0645 -0.53181,-0.22628 -0.79224,-0.46616 -0.0964,-0.0888 -0.17805,-0.15767 -0.18143,-0.15307 -0.0145,0.0197 0.0324,0.39513 0.0628,0.50289 0.0849,0.30045 0.26708,0.6271 0.5353,0.95951 0.2058,0.25505 0.20993,0.2658 0.0641,0.16699 z m 1.06712,-0.15042 c 0.23504,-0.29267 0.34498,-0.46457 0.44348,-0.6935 0.10029,-0.23303 0.14722,-0.45978 0.13943,-0.67345 l -0.006,-0.16304 -0.11232,0.10803 c -0.15473,0.14883 -0.37447,0.31951 -0.52076,0.40456 -0.0975,0.0566 -0.37192,0.17083 -0.41064,0.17083 -0.005,0 -0.008,-1.38289 -0.008,-3.07309 v -3.07309 l 0.14808,2.1e-4 c 0.21192,2.2e-4 0.70018,0.0425 0.8322,0.0719 0.0617,0.0138 0.2234,0.0671 0.35921,0.11844 l 0.2469,0.0934 0.29429,-0.12133 c 0.37248,-0.15353 0.54905,-0.25588 0.67394,-0.39059 0.24523,-0.26453 0.3281,-0.66185 0.2011,-0.96438 -0.0663,-0.15782 -0.32248,-0.4418 -0.47008,-0.52096 -0.0662,-0.0355 -0.11735,-0.0752 -0.11352,-0.0882 0.004,-0.0141 0.0978,-0.0222 0.23273,-0.0203 0.28562,0.004 0.39715,0.0561 0.58512,0.27295 0.16455,0.18989 0.21643,0.33736 0.21606,0.61371 0,0.34692 -0.13223,0.67768 -0.46134,1.15815 -0.0831,0.1213 -0.15104,0.22507 -0.15104,0.2306 0,0.006 0.0783,0.029 0.17403,0.0522 0.0958,0.0231 0.17825,0.0499 0.18332,0.0594 0.005,0.01 -0.0617,0.0301 -0.14852,0.0456 -0.25255,0.0453 -0.76314,0.19473 -0.77368,0.22642 -0.005,0.0159 0.0138,0.11759 0.0423,0.22585 0.0286,0.10826 0.0622,0.28144 0.0746,0.38486 0.0124,0.10341 0.0269,0.19583 0.0317,0.20537 0.005,0.01 0.0505,0.0384 0.1007,0.064 0.18633,0.095 0.37244,0.38205 0.48589,0.74921 0.0588,0.19012 0.0637,0.22942 0.0629,0.50067 0,0.27216 -0.007,0.31567 -0.0771,0.57694 -0.23804,0.8827 -0.24879,1.06759 -0.0779,1.33983 0.0931,0.14837 0.25285,0.26616 0.51703,0.38133 0.20355,0.0887 0.20824,0.0924 0.12951,0.0999 -0.18939,0.0182 -0.72678,-0.10125 -0.89398,-0.19873 -0.0362,-0.0211 -0.11329,-0.0801 -0.17124,-0.13106 -0.21847,-0.19206 -0.22177,-0.29773 -0.0381,-1.2205 0.0913,-0.45844 0.10914,-0.72868 0.0631,-0.95343 -0.0338,-0.16571 -0.078,-0.27111 -0.11335,-0.27111 -0.0214,0 -0.0421,0.0785 -0.10263,0.38856 -0.0585,0.2995 -0.20321,0.79721 -0.38343,1.31872 l -0.15463,0.44743 -0.0155,0.65935 c -0.009,0.36264 -0.0245,0.69276 -0.0352,0.73356 -0.0107,0.0408 -0.0643,0.17328 -0.11872,0.29436 l -0.099,0.22016 -0.006,-0.15896 c -0.003,-0.0874 -0.0148,-0.15895 -0.0255,-0.15895 -0.0107,0 -0.0402,0.029 -0.0655,0.0643 -0.14491,0.20342 -0.35236,0.42512 -0.55338,0.59156 -0.12576,0.10411 -0.24679,0.19729 -0.26898,0.20707 -0.0221,0.01 0.0401,-0.0824 0.13836,-0.20475 z m 0.48499,-7.16353 c -0.12079,-0.0282 -1.87187,-0.0354 -2.13205,-0.009 l -0.20214,0.0208 0.0138,-0.0984 c 0.0269,-0.19359 0.13819,-0.54399 0.25874,-0.81427 l 0.12259,-0.27481 -0.10126,-0.20408 c -0.16117,-0.32496 -0.2104,-0.60228 -0.158,-0.89025 0.0553,-0.30409 0.18022,-0.50375 0.38687,-0.61859 0.19969,-0.11096 0.46374,-0.12028 0.46374,-0.0164 0,0.0767 -0.13595,0.23653 -0.27566,0.32411 -0.0787,0.0493 -0.15218,0.0937 -0.16337,0.0987 -0.0128,0.006 -0.0103,0.0288 0.006,0.061 0.10171,0.19826 0.11032,0.23176 0.0823,0.321 l -0.0269,0.0861 0.12104,0.12383 0.12103,0.12383 -0.0688,0.10305 c -0.0379,0.0567 -0.0782,0.11735 -0.0896,0.13482 -0.0152,0.0229 0,0.0205 0.0599,-0.009 0.26653,-0.13304 0.33578,-0.15813 0.46818,-0.16968 0.12576,-0.011 0.16838,-0.003 0.33458,0.0629 0.10477,0.0415 0.19573,0.0694 0.20214,0.062 0.007,-0.007 -0.003,-0.0329 -0.0224,-0.0566 -0.063,-0.0802 -0.0429,-0.16816 0.065,-0.28534 0.098,-0.10636 0.0986,-0.10801 0.0665,-0.17181 -0.0299,-0.0595 -0.0297,-0.073 0.005,-0.17662 0.0701,-0.21065 0.0706,-0.20797 -0.0515,-0.27454 -0.2069,-0.11288 -0.36858,-0.32439 -0.30439,-0.39824 0.0368,-0.0423 0.26191,-0.0319 0.38987,0.0181 0.15738,0.0614 0.34356,0.27722 0.40713,0.4719 0.11876,0.36369 0.0587,0.78216 -0.16652,1.161 l -0.0602,0.10129 0.0824,0.14596 c 0.21257,0.37644 0.37274,0.9673 0.28351,1.04569 -0.0158,0.014 -0.0603,0.0143 -0.11745,10e-4 z"
       style="fill:#ff0000;stroke-width:0.02192988" />
  </g>
</svg>
