<?xml version="1.0" encoding="UTF-8" standalone="no"?>
<!-- Generator: Adobe Illustrator 18.1.1, SVG Export Plug-In . SVG Version: 6.00 Build 0)  -->

<svg
   xmlns:dc="http://purl.org/dc/elements/1.1/"
   xmlns:cc="http://creativecommons.org/ns#"
   xmlns:rdf="http://www.w3.org/1999/02/22-rdf-syntax-ns#"
   xmlns:svg="http://www.w3.org/2000/svg"
   xmlns="http://www.w3.org/2000/svg"
   xmlns:sodipodi="http://sodipodi.sourceforge.net/DTD/sodipodi-0.dtd"
   xmlns:inkscape="http://www.inkscape.org/namespaces/inkscape"
   version="1.1"
   id="Capa_1"
   x="0px"
   y="0px"
   viewBox="0 0 25.000001 25.000001"
   xml:space="preserve"
   sodipodi:docname="infection_app.svg"
   inkscape:version="0.92.4 (5da689c313, 2019-01-14)"
   width="25"
   height="25"><metadata
   id="metadata959"><rdf:RDF><cc:Work
       rdf:about=""><dc:format>image/svg+xml</dc:format><dc:type
         rdf:resource="http://purl.org/dc/dcmitype/StillImage" /><dc:title></dc:title></cc:Work></rdf:RDF></metadata><defs
   id="defs957" /><sodipodi:namedview
   pagecolor="#ffffff"
   bordercolor="#666666"
   borderopacity="1"
   objecttolerance="10"
   gridtolerance="10"
   guidetolerance="10"
   inkscape:pageopacity="0"
   inkscape:pageshadow="2"
   inkscape:window-width="1920"
   inkscape:window-height="1027"
   id="namedview955"
   showgrid="false"
   inkscape:zoom="22.627417"
   inkscape:cx="13.598706"
   inkscape:cy="8.6166045"
   inkscape:window-x="-8"
   inkscape:window-y="-8"
   inkscape:window-maximized="1"
   inkscape:current-layer="Capa_1" />
<g
   id="g922"
   transform="translate(0,0.931518)">
	<path
   d="M 18.537,6.945 H 1.432 C 0.641,6.945 0,7.582 0,8.369 v 14.262 c 0,0.785 0.641,1.426 1.432,1.426 h 17.105 c 0.785,0 1.426,-0.641 1.426,-1.426 V 8.369 c 0,-0.787 -0.641,-1.424 -1.426,-1.424 z M 6.817,8.016 c 0.395,0 0.712,0.318 0.712,0.713 0,0.393 -0.317,0.713 -0.712,0.713 -0.392,0 -0.71,-0.32 -0.71,-0.713 0,-0.395 0.319,-0.713 0.71,-0.713 z m -2.178,0 c 0.391,0 0.71,0.318 0.71,0.713 0,0.393 -0.319,0.713 -0.71,0.713 -0.397,0 -0.717,-0.32 -0.717,-0.713 0,-0.395 0.319,-0.713 0.717,-0.713 z m -2.145,0 c 0.396,0 0.715,0.318 0.715,0.713 0,0.393 -0.318,0.713 -0.715,0.713 -0.39,0 -0.709,-0.32 -0.709,-0.713 0,-0.395 0.319,-0.713 0.709,-0.713 z M 18.537,22.631 H 1.432 V 10.527 h 17.105 c 0,0 0,12.104 0,12.104 z m 0,-13.53 H 8.559 V 8.387 h 9.979 z"
   id="path888"
   style="fill:#0055d4"
   inkscape:connector-curvature="0" />
	<path
   d="M 23.544019,-0.90797726 H 6.4370191 c -0.79,0 -1.426,0.637 -1.426,1.42600004 l 0,6.42634782 h 1.426 l 0,-4.2703478 H 23.544019 V 14.778022 h -3.584502 v 1.426 h 3.584502 c 0.786,0 1.428,-0.641 1.428,-1.426 V 0.51802278 c 0,-0.78900004 -0.642,-1.42600004 -1.428,-1.42600004 z M 7.5050191,1.5880228 c -0.394,0 -0.711,-0.316 -0.711,-0.71100002 0,-0.398 0.317,-0.71300004 0.711,-0.71300004 0.393,0 0.713,0.31400004 0.713,0.71300004 0,0.39500002 -0.321,0.71100002 -0.713,0.71100002 z m 2.139,0 c -0.396,0 -0.713,-0.316 -0.713,-0.71100002 0,-0.398 0.316,-0.71300004 0.713,-0.71300004 0.3939999,0 0.7139999,0.31400004 0.7139999,0.71300004 -0.001,0.39500002 -0.321,0.71100002 -0.7139999,0.71100002 z m 2.1849999,0 c -0.396,0 -0.717,-0.316 -0.717,-0.71100002 0,-0.398 0.32,-0.71300004 0.717,-0.71300004 0.389,0 0.707,0.31400004 0.707,0.71300004 0,0.39500002 -0.318,0.71100002 -0.707,0.71100002 z m 11.715,-0.342 h -9.98 V 0.53102278 h 9.98 z"
   id="path890"
   style="fill:#003380"
   inkscape:connector-curvature="0"
   sodipodi:nodetypes="ssscccccccsssssssssssscssssssccccc" />
	<g
   id="g892">
	</g>
	<g
   id="g894">
	</g>
	<g
   id="g896">
	</g>
	<g
   id="g898">
	</g>
	<g
   id="g900">
	</g>
	<g
   id="g902">
	</g>
	<g
   id="g904">
	</g>
	<g
   id="g906">
	</g>
	<g
   id="g908">
	</g>
	<g
   id="g910">
	</g>
	<g
   id="g912">
	</g>
	<g
   id="g914">
	</g>
	<g
   id="g916">
	</g>
	<g
   id="g918">
	</g>
	<g
   id="g920">
	</g>
</g>
<g
   id="g924"
   transform="translate(0,0.36300087)">
</g>
<g
   id="g926"
   transform="translate(0,0.36300087)">
</g>
<g
   id="g928"
   transform="translate(0,0.36300087)">
</g>
<g
   id="g930"
   transform="translate(0,0.36300087)">
</g>
<g
   id="g932"
   transform="translate(0,0.36300087)">
</g>
<g
   id="g934"
   transform="translate(0,0.36300087)">
</g>
<g
   id="g936"
   transform="translate(0,0.36300087)">
</g>
<g
   id="g938"
   transform="translate(0,0.36300087)">
</g>
<g
   id="g940"
   transform="translate(0,0.36300087)">
</g>
<g
   id="g942"
   transform="translate(0,0.36300087)">
</g>
<g
   id="g944"
   transform="translate(0,0.36300087)">
</g>
<g
   id="g946"
   transform="translate(0,0.36300087)">
</g>
<g
   id="g948"
   transform="translate(0,0.36300087)">
</g>
<g
   id="g950"
   transform="translate(0,0.36300087)">
</g>
<g
   id="g952"
   transform="translate(0,0.36300087)">
</g>
<path
   id="path971"
   d="m 14.382683,17.954736 h -1.668786 v -1.77153 l 1.33323,-1.33323 c 0.137924,-0.13797 0.137924,-0.36155 0,-0.49947 -0.137924,-0.13797 -0.361549,-0.13793 -0.499426,-5e-5 l -1.278371,1.27832 c -0.156147,-0.96904 -0.858808,-1.75736 -1.780857,-2.03777 l 1.710365,-1.71037 c 0.137924,-0.13797 0.137924,-0.36154 0,-0.49947 -0.137924,-0.13787 -0.361549,-0.13787 -0.499426,0 l -1.9532505,1.95325 -1.936768,-1.93658 c -0.137924,-0.13787 -0.361549,-0.13787 -0.499426,0 -0.137924,0.13797 -0.137924,0.36155 0,0.49952 l 1.69379,1.69374 c -0.922002,0.28042 -1.624616,1.06869 -1.78081,2.03768 l -1.278277,-1.27823 c -0.137924,-0.13797 -0.361549,-0.13792 -0.499426,-4e-5 -0.137923,0.13797 -0.137923,0.36155 0,0.49952 l 1.333136,1.33318 v 1.77158 h -1.689411 c -0.195042,0 -0.353167,0.15808 -0.353167,0.35317 0,0.19509 0.158125,0.35316 0.353167,0.35316 h 1.689646 c 0.0019,0.60058 0.183365,1.15948 0.493069,1.62636 l -1.661817,1.66182 c -0.137923,0.13797 -0.137923,0.36155 0,0.49947 0.06894,0.0689 0.159349,0.10341 0.249713,0.10341 0.09036,0 0.180775,-0.0345 0.249713,-0.10341 l 1.621414,-1.62141 c 0.529704,0.49104 1.237969,0.79194 2.015454,0.79194 0.7722595,0 1.4764285,-0.29675 2.0049075,-0.78191 l 1.611243,1.61134 c 0.06894,0.069 0.159349,0.10345 0.249713,0.10345 0.09036,0 0.180774,-0.0345 0.249713,-0.10341 0.137923,-0.13792 0.137923,-0.36155 0,-0.49942 l -1.649197,-1.64929 c 0.314742,-0.46939 0.499143,-1.03304 0.501073,-1.63894 h 1.669022 c 0.195042,0 0.353167,-0.15807 0.353167,-0.35316 4.7e-5,-0.19509 -0.158078,-0.35322 -0.35312,-0.35322 z m -4.6366155,-3.76758 c 0.8992115,0 1.6502335,0.64502 1.8156095,1.49658 H 7.9305055 c 0.165377,-0.85156 0.916399,-1.49658 1.815562,-1.49658 z m -2.261353,4.46436 v -2.26145 h 1.90828 v 4.49516 c -1.079797,-0.17008 -1.90828,-1.10683 -1.90828,-2.23371 z m 2.6146155,2.23371 v -4.49516 h 1.908233 v 2.26145 c 0,1.12684 -0.828484,2.06363 -1.908233,2.23371 z"
   inkscape:connector-curvature="0"
   style="fill:#aa0000;stroke:#aa0000;stroke-width:0.04708896" /></svg>